<?xml version="1.0" standalone="no"?>
<!DOCTYPE svg PUBLIC "-//W3C//DTD SVG 20010904//EN"
 "http://www.w3.org/TR/2001/REC-SVG-20010904/DTD/svg10.dtd">
<svg version="1.0" xmlns="http://www.w3.org/2000/svg"
 width="1200.000000pt" height="1200.000000pt" viewBox="0 0 1200.000000 1200.000000"
 preserveAspectRatio="xMidYMid meet">
<metadata>
Created by potrace 1.11, written by Peter Selinger 2001-2013
</metadata>
<g transform="translate(0.000000,1200.000000) scale(0.100000,-0.100000)"
fill="#000000" stroke="none">
<path d="M5685 11321 c-11 -4 -33 -6 -50 -4 -16 2 -37 0 -45 -3 -8 -4 -37 -8
-65 -10 -27 -2 -84 -9 -125 -14 -41 -6 -96 -11 -122 -12 -27 -1 -48 -5 -48 -9
0 -3 -23 -6 -51 -5 -27 1 -53 -2 -56 -7 -3 -4 -15 -7 -26 -6 -12 1 -53 -2 -92
-6 -38 -5 -81 -9 -95 -11 -14 -1 -25 -3 -25 -4 0 -2 -22 -4 -50 -7 -27 -2 -84
-8 -125 -13 -95 -12 -153 -19 -210 -24 -25 -2 -66 -7 -92 -11 -49 -7 -87 -12
-173 -20 -97 -9 -150 -16 -175 -22 -14 -3 -45 -7 -70 -9 -25 -2 -67 -6 -95 -8
-27 -3 -77 -8 -110 -12 -33 -3 -67 -8 -75 -11 -8 -3 -35 -6 -60 -7 -25 0 -49
-4 -55 -7 -5 -3 -35 -6 -67 -5 -31 1 -54 -2 -52 -5 2 -4 -27 -9 -64 -13 -37
-3 -87 -8 -112 -10 -25 -3 -67 -7 -95 -10 -27 -3 -84 -10 -125 -16 -76 -10
-126 -15 -235 -25 -33 -3 -67 -8 -75 -12 -8 -3 -36 -5 -62 -4 -27 0 -48 -2
-48 -7 0 -5 -27 -8 -60 -7 -33 1 -60 -2 -60 -6 0 -6 -108 -18 -192 -20 -27 -1
-48 -5 -48 -9 0 -4 -21 -8 -48 -8 -26 -1 -83 -6 -127 -12 -44 -6 -99 -12 -122
-12 -24 -1 -43 -4 -43 -7 0 -4 -24 -7 -53 -8 -28 -2 -86 -7 -127 -13 -41 -6
-97 -12 -125 -14 -27 -2 -50 -5 -50 -6 0 -1 -20 -4 -45 -6 -128 -11 -176 -17
-185 -24 -5 -3 -36 -6 -67 -6 -32 1 -58 -2 -58 -6 0 -4 -19 -7 -42 -7 -59 0
-170 -12 -188 -21 -8 -4 -36 -6 -62 -5 -27 1 -48 -1 -48 -5 0 -10 -39 -20 -44
-12 -5 9 -55 7 -78 -2 -9 -4 -38 -9 -65 -11 -26 -3 -74 -7 -107 -10 -32 -2
-64 -9 -71 -15 -9 -8 -15 -8 -20 0 -4 6 -13 7 -23 2 -9 -5 -27 -7 -40 -6 -12
0 -22 -2 -22 -5 0 -4 -20 -6 -45 -5 -28 1 -45 -2 -45 -10 0 -7 -4 -6 -9 3 -5
7 -11 9 -14 4 -4 -6 -30 -11 -58 -12 -29 -1 -57 -5 -63 -10 -6 -4 -23 -7 -39
-6 -17 1 -27 -3 -27 -12 0 -7 4 -13 10 -13 5 0 7 -6 4 -14 -3 -8 3 -27 12 -42
10 -15 20 -36 21 -48 2 -12 10 -26 18 -32 8 -6 12 -14 8 -17 -3 -4 -1 -7 5 -7
6 0 9 -6 6 -13 -6 -16 41 -113 59 -120 9 -4 9 -6 0 -6 -7 -1 -13 -6 -13 -12 0
-5 5 -7 12 -3 7 5 9 0 6 -14 -4 -13 0 -23 8 -26 8 -3 14 -9 13 -13 -1 -4 0
-11 1 -15 1 -5 4 -11 5 -15 11 -39 29 -73 37 -73 5 0 7 -4 4 -9 -3 -4 8 -36
24 -70 17 -34 30 -68 30 -76 0 -8 4 -15 10 -15 5 0 9 -3 9 -7 -1 -5 0 -11 1
-15 1 -5 3 -11 5 -15 1 -5 8 -21 15 -38 7 -16 13 -33 12 -37 -1 -5 3 -8 8 -8
5 0 9 -3 8 -7 -1 -5 5 -21 12 -38 7 -16 14 -32 15 -35 8 -22 38 -90 50 -112 8
-14 15 -33 15 -42 0 -9 4 -16 10 -16 5 0 7 -7 4 -15 -4 -8 -1 -15 5 -15 6 0
11 -6 11 -12 0 -7 7 -26 15 -42 8 -15 12 -32 9 -37 -3 -5 -1 -9 5 -9 10 0 27
-38 23 -52 -1 -5 3 -8 8 -8 6 0 10 -8 10 -17 0 -10 9 -33 21 -52 11 -18 18
-36 15 -38 -3 -3 4 -19 15 -34 11 -16 17 -29 13 -29 -5 0 -3 -5 4 -12 7 -7 12
-20 12 -30 0 -10 5 -18 12 -18 6 0 8 -3 5 -6 -4 -4 0 -19 7 -33 18 -33 30 -64
28 -73 -1 -5 2 -8 6 -8 5 0 15 -19 22 -42 7 -24 15 -45 19 -48 4 -3 20 -39 36
-80 16 -41 33 -78 38 -81 5 -4 6 -12 3 -18 -4 -6 -3 -11 2 -11 5 0 13 -10 17
-22 9 -28 8 -25 28 -72 9 -21 17 -42 17 -47 0 -5 4 -9 10 -9 5 0 9 -3 8 -7 -2
-5 6 -28 16 -53 11 -25 20 -47 21 -50 2 -6 17 -41 41 -95 10 -22 17 -43 16
-47 -1 -5 3 -8 8 -8 5 0 9 -3 8 -7 -1 -5 5 -21 12 -38 7 -16 14 -33 15 -37 2
-5 4 -11 5 -15 1 -5 2 -11 1 -15 0 -5 4 -8 9 -8 6 0 10 -5 10 -12 0 -6 8 -30
19 -52 10 -23 22 -50 26 -61 29 -73 40 -95 47 -95 4 0 5 -9 3 -20 -2 -11 0
-20 5 -20 9 0 34 -58 33 -77 0 -7 3 -13 8 -13 5 0 9 -4 9 -9 0 -5 12 -35 27
-67 15 -33 27 -61 28 -64 1 -3 7 -18 13 -33 7 -16 12 -33 12 -38 0 -5 4 -9 10
-9 5 0 7 -7 4 -15 -4 -8 -1 -15 5 -15 6 0 11 -5 11 -11 0 -10 42 -113 78 -189
9 -19 17 -37 17 -40 1 -3 10 -23 20 -45 10 -22 19 -42 20 -45 1 -3 10 -23 20
-45 10 -22 19 -42 19 -45 1 -3 5 -11 9 -17 5 -7 6 -13 3 -13 -3 0 6 -20 20
-45 13 -25 22 -45 18 -45 -3 0 6 -20 21 -45 14 -25 23 -49 20 -54 -3 -5 1 -16
9 -24 8 -8 12 -17 9 -21 -4 -3 -1 -6 6 -6 8 0 11 -7 7 -15 -3 -8 -1 -15 4 -15
6 0 10 -6 10 -13 0 -7 9 -28 19 -48 11 -20 21 -45 23 -55 2 -10 7 -22 11 -25
5 -3 9 -13 11 -21 1 -9 8 -23 15 -32 7 -9 10 -16 6 -16 -4 0 -2 -7 5 -15 7 -8
9 -15 6 -15 -4 0 1 -12 12 -27 10 -16 17 -34 15 -40 -3 -7 0 -13 6 -13 6 0 10
-3 9 -7 -1 -5 6 -26 16 -48 9 -22 17 -41 16 -43 0 -1 7 -17 17 -35 9 -17 16
-35 15 -39 -1 -5 3 -8 9 -8 6 0 9 -6 7 -12 -3 -7 8 -37 24 -66 15 -30 28 -63
28 -73 0 -10 4 -19 8 -19 9 0 37 -70 34 -82 -1 -5 3 -8 8 -8 5 0 9 -3 8 -7 -2
-9 35 -95 57 -134 8 -14 11 -29 8 -33 -4 -4 -3 -10 2 -14 9 -6 35 -55 41 -74
1 -5 3 -10 4 -13 1 -3 3 -8 4 -12 1 -5 8 -19 16 -33 8 -14 15 -30 16 -36 1 -6
10 -29 20 -50 11 -22 19 -41 20 -44 0 -3 7 -18 14 -35 7 -16 13 -33 12 -37 -1
-5 2 -8 8 -8 5 0 12 -16 16 -35 3 -19 11 -35 17 -35 6 0 7 -3 4 -6 -4 -4 2
-19 12 -33 10 -14 16 -32 14 -38 -3 -7 1 -13 8 -13 7 0 9 -3 6 -7 -4 -3 0 -15
9 -24 16 -18 18 -18 45 2 l29 20 10 -26 c5 -14 10 -30 10 -35 0 -5 8 -13 17
-19 18 -10 73 14 73 32 0 4 4 6 9 2 5 -3 12 -1 16 5 4 6 11 8 16 5 5 -4 9 -1
9 4 0 6 6 11 14 11 8 0 17 7 20 16 3 8 10 13 15 10 5 -3 14 1 21 9 7 8 20 15
30 15 10 0 20 7 24 15 3 8 10 15 16 15 6 0 29 12 53 27 23 15 44 28 47 28 11
1 175 99 181 108 4 5 11 7 17 3 5 -3 13 1 16 9 3 8 9 14 13 13 4 -1 26 9 48
23 22 13 43 23 48 21 4 -1 7 3 7 8 0 10 52 35 58 28 2 -2 8 5 13 15 6 9 17 17
24 17 8 0 15 5 15 12 0 6 3 9 6 5 3 -3 34 12 69 33 35 21 66 36 69 33 3 -3 8
2 12 11 3 9 12 16 20 16 8 0 14 5 14 11 0 5 4 8 9 5 5 -3 19 2 32 12 13 10 41
26 62 37 20 11 37 23 37 27 0 5 3 7 8 7 11 -2 72 25 72 32 0 4 25 19 55 34 30
16 55 32 55 37 0 5 5 6 10 3 6 -3 10 -2 10 3 0 6 12 13 27 17 15 3 31 12 35
18 4 7 11 12 15 13 15 2 58 23 48 23 -10 1 43 31 60 34 5 1 18 10 29 20 11 9
24 17 28 17 5 0 34 16 64 35 30 19 59 35 64 35 6 0 10 5 10 11 0 5 4 8 9 4 5
-3 13 0 16 5 7 12 55 34 68 32 4 -1 7 2 7 8 0 5 20 19 44 31 25 11 50 27 57
35 6 7 15 11 20 8 5 -3 9 -1 9 4 0 8 35 23 49 21 2 -1 8 6 13 15 5 9 16 16 23
16 8 0 15 5 15 11 0 5 5 7 10 4 6 -3 10 -1 10 5 0 6 4 9 9 5 5 -3 12 -1 15 4
3 5 32 24 64 42 31 18 71 41 87 51 17 10 38 21 48 24 9 4 17 11 17 16 0 5 4 6
10 3 5 -3 20 3 32 15 13 12 41 30 63 41 22 10 55 28 73 39 17 11 32 17 32 15
0 -3 9 4 20 15 11 11 27 20 35 20 8 0 15 5 15 11 0 6 6 9 13 6 7 -3 19 4 26
14 6 11 16 17 21 14 6 -3 10 -2 10 4 0 5 14 12 30 16 17 4 30 11 30 16 0 4 17
17 38 27 42 21 85 45 92 52 3 3 19 12 35 20 17 8 32 17 35 20 3 3 16 11 30 18
14 7 48 26 75 42 28 16 61 35 75 42 14 7 27 15 30 18 7 7 38 26 80 49 85 45
107 58 137 76 l33 20 -3 1955 -2 1955 -25 1 c-14 0 -30 -3 -36 -8 -14 -11 -45
1 -43 16 4 36 -2 46 -28 45 -16 0 -37 -4 -48 -8z m-560 -781 c0 -36 -4 -71 -8
-77 -5 -7 -6 -13 -1 -13 11 0 11 -211 0 -228 -4 -7 -4 -12 1 -12 10 0 10 -211
-1 -228 -4 -7 -4 -12 1 -12 10 0 10 -211 -1 -228 -4 -7 -4 -12 1 -12 10 0 10
-211 -1 -228 -4 -7 -4 -12 1 -12 10 0 10 -211 -1 -228 -4 -7 -4 -12 1 -12 10
0 10 -211 -1 -228 -4 -7 -4 -12 1 -12 10 0 10 -211 -1 -228 -4 -7 -4 -12 1
-12 10 0 10 -211 -1 -228 -4 -7 -4 -12 1 -12 10 0 10 -211 -1 -228 -4 -7 -4
-12 1 -12 10 0 10 -211 -1 -228 -4 -7 -4 -12 1 -12 4 0 8 -54 7 -120 -1 -116
-9 -150 -36 -150 -6 0 -22 -9 -38 -20 -15 -11 -30 -17 -34 -13 -3 3 -6 2 -6
-4 0 -6 -13 -16 -30 -23 -16 -7 -30 -16 -30 -20 0 -5 -13 -11 -29 -15 -16 -3
-32 -13 -35 -21 -3 -8 -12 -14 -21 -14 -8 0 -15 -5 -15 -12 0 -6 -3 -8 -7 -5
-3 4 -12 2 -20 -4 -7 -6 -13 -8 -13 -3 0 5 -4 4 -8 -2 -8 -12 -191 -122 -237
-142 -16 -7 -33 -18 -37 -25 -4 -7 -11 -12 -15 -12 -10 -1 -76 -36 -83 -44 -3
-3 -21 -14 -40 -24 -19 -9 -53 -29 -75 -43 -22 -13 -48 -27 -57 -31 -10 -3
-18 -9 -18 -14 0 -5 -3 -9 -7 -8 -15 2 -53 -14 -53 -22 0 -9 -69 -43 -82 -41
-5 1 -8 -2 -8 -7 0 -5 -25 -22 -55 -37 -30 -16 -55 -31 -55 -35 0 -4 -13 -10
-29 -14 -16 -3 -32 -13 -35 -21 -3 -9 -10 -12 -16 -9 -5 3 -10 2 -10 -2 0 -5
-12 -14 -27 -21 -42 -18 -137 -74 -144 -84 -3 -6 -10 -10 -15 -10 -18 -1 -54
-21 -54 -30 0 -5 -4 -6 -10 -3 -5 3 -10 1 -10 -4 0 -6 -7 -11 -15 -11 -8 0
-15 -5 -15 -11 0 -5 -4 -8 -9 -5 -5 3 -14 -1 -21 -9 -7 -8 -18 -15 -26 -15 -7
0 -20 -7 -28 -16 -9 -8 -16 -12 -16 -8 0 4 -10 -2 -22 -14 -13 -11 -27 -21
-31 -20 -5 0 -30 -14 -57 -31 -26 -17 -52 -31 -57 -31 -6 0 -20 -9 -33 -20
-13 -11 -29 -20 -37 -20 -7 0 -13 -5 -13 -12 0 -6 -3 -9 -6 -5 -4 3 -21 -5
-39 -18 -17 -14 -35 -22 -38 -18 -4 3 -7 1 -7 -5 0 -7 -6 -12 -14 -12 -7 0
-19 -7 -26 -15 -7 -8 -16 -12 -21 -9 -5 3 -9 0 -9 -5 0 -6 -7 -11 -15 -11 -8
0 -15 -4 -15 -10 0 -5 -9 -10 -19 -10 -10 0 -22 -7 -25 -16 -3 -8 -10 -12 -16
-9 -5 3 -10 1 -10 -4 0 -6 -5 -11 -11 -11 -6 0 -23 -9 -39 -20 -15 -11 -30
-17 -34 -13 -3 3 -6 2 -6 -4 0 -6 -8 -14 -17 -17 -10 -3 -40 -20 -68 -36 -27
-17 -58 -33 -67 -36 -10 -4 -18 -11 -18 -16 0 -6 -7 -8 -15 -4 -8 3 -15 1 -15
-4 0 -19 -19 -10 -26 13 -5 12 -9 24 -10 27 -1 3 -5 15 -9 28 -4 12 -12 22
-18 22 -6 0 -8 3 -4 6 6 6 -11 48 -58 148 -15 31 -28 62 -29 69 -2 7 -9 26
-16 42 -7 17 -13 33 -12 38 1 4 -3 7 -8 7 -6 0 -10 5 -10 11 0 5 -11 35 -25
65 -14 30 -25 61 -25 69 0 8 -4 15 -10 15 -5 0 -9 3 -8 8 0 4 -7 25 -17 47
-10 22 -18 46 -18 53 0 6 -4 12 -8 12 -4 0 -10 14 -14 30 -4 17 -11 30 -16 30
-5 0 -9 8 -9 18 0 10 -6 26 -14 37 -7 11 -14 22 -14 25 -1 6 -8 27 -23 65 -7
17 -12 33 -11 38 1 4 -5 7 -14 7 -8 0 -12 5 -8 11 3 6 -3 29 -14 52 -32 66
-111 250 -114 267 -2 8 -5 17 -8 20 -6 5 -26 49 -29 62 -1 4 -15 36 -31 70
-17 35 -30 69 -30 76 0 6 -4 12 -10 12 -5 0 -9 3 -8 8 2 9 -8 33 -40 102 -14
30 -26 60 -27 65 -1 6 -12 33 -25 60 -13 28 -25 52 -25 55 -4 24 -18 50 -26
50 -6 0 -8 4 -5 8 2 4 -5 28 -16 52 -12 25 -22 47 -23 50 -5 14 -28 70 -46
110 -12 25 -25 54 -29 65 -5 11 -20 46 -34 77 -14 31 -26 62 -26 67 0 6 -4 11
-10 11 -5 0 -7 7 -4 15 4 8 1 15 -5 15 -6 0 -10 3 -9 8 1 4 -5 21 -12 37 -7
17 -14 32 -15 35 -1 3 -9 22 -18 43 -9 20 -16 39 -17 42 0 3 -11 24 -24 48
-12 24 -22 51 -20 60 1 10 -1 17 -6 17 -9 0 -36 61 -32 73 1 4 -3 7 -8 7 -6 0
-10 8 -10 18 0 10 -7 27 -15 38 -8 12 -12 24 -8 27 3 4 -2 9 -11 13 -9 3 -13
10 -10 15 3 5 2 15 -3 22 -4 6 -8 14 -9 17 -1 9 -44 105 -54 122 -5 10 -10 25
-10 33 0 8 -5 15 -10 15 -6 0 -10 6 -9 13 2 16 -23 77 -32 77 -4 0 -10 16 -13
35 -4 19 -11 35 -17 35 -6 0 -8 4 -4 9 3 5 0 13 -6 16 -5 4 -8 13 -5 21 3 8 1
14 -4 14 -6 0 -10 7 -10 15 0 8 -4 15 -10 15 -5 0 -9 3 -8 8 0 4 -2 15 -5 25
-8 20 -14 38 -16 52 -2 6 -8 17 -16 25 -7 8 -16 30 -20 48 -3 17 -11 32 -16
32 -6 0 -7 5 -4 10 3 6 1 10 -5 10 -7 0 -10 7 -6 15 3 8 2 15 -3 15 -9 0 -26
48 -23 63 1 4 -2 7 -7 7 -7 0 -16 20 -20 45 0 3 -12 28 -26 55 -14 28 -22 50
-18 50 5 0 1 4 -7 10 -8 5 -12 11 -10 14 9 8 74 18 123 18 26 1 47 4 47 8 0 4
24 8 53 8 28 1 86 6 127 12 118 16 171 21 233 23 31 1 57 5 57 10 0 4 27 7 60
7 33 0 60 3 60 8 0 4 24 8 53 9 52 2 81 4 192 17 83 10 110 14 110 16 0 1 23
4 50 5 85 6 157 14 189 21 17 4 47 7 66 7 19 -1 40 2 45 6 6 3 33 7 60 8 75 4
168 14 185 20 8 3 36 7 63 8 26 1 48 3 50 5 1 2 27 5 57 7 30 2 87 8 125 13
84 12 140 18 220 24 33 3 71 8 85 12 14 4 44 6 66 5 23 -1 44 2 48 7 3 5 28 8
56 7 28 -1 53 1 55 5 2 4 30 8 61 9 31 1 61 4 67 8 5 3 33 7 61 9 141 9 166
11 173 17 3 4 30 7 59 7 29 0 55 3 58 8 2 4 29 7 60 6 31 -1 56 1 56 5 0 4 21
8 48 9 26 0 81 6 122 12 41 6 99 11 128 12 28 0 52 4 52 8 0 4 21 7 48 8 26 1
83 6 127 12 44 6 100 12 125 13 25 1 50 5 55 8 6 4 32 6 58 5 27 -1 51 2 54 7
3 4 30 7 61 5 l56 -3 1 -65z"/>
<path d="M6116 9378 c1 -1074 2 -1956 3 -1959 1 -7 41 -22 54 -20 4 1 7 -4 7
-9 0 -6 7 -10 15 -10 8 0 15 -4 15 -8 0 -8 64 -42 76 -41 4 0 10 -3 13 -9 6
-8 88 -58 141 -84 14 -7 27 -15 30 -18 3 -3 25 -16 50 -29 25 -14 47 -27 50
-30 3 -3 23 -15 45 -27 90 -48 110 -59 117 -69 4 -5 8 -6 8 -1 0 5 9 1 20 -9
19 -17 58 -40 148 -85 23 -12 42 -27 42 -32 0 -6 6 -8 14 -5 8 3 17 -1 20 -9
3 -9 10 -12 16 -9 5 3 10 2 10 -3 0 -9 50 -37 63 -34 4 1 7 -3 7 -8 0 -6 7
-10 15 -10 7 0 18 -7 23 -16 5 -9 11 -15 13 -14 8 3 45 -14 74 -34 17 -12 32
-21 35 -21 3 0 19 -9 35 -19 17 -11 47 -30 67 -43 21 -12 44 -23 53 -23 8 0
15 -4 15 -10 0 -5 11 -12 24 -16 14 -3 27 -12 30 -21 3 -8 10 -12 15 -8 5 3
12 1 15 -4 4 -5 31 -22 62 -38 31 -15 64 -36 75 -46 10 -9 20 -17 21 -16 7 3
65 -28 83 -44 11 -10 32 -21 48 -24 15 -3 27 -9 27 -14 0 -5 21 -18 48 -30 26
-12 49 -25 52 -29 3 -4 21 -15 40 -25 19 -10 37 -21 40 -24 5 -7 50 -27 63
-29 4 -1 17 -11 29 -22 20 -19 33 -24 51 -21 4 0 7 -4 7 -10 0 -5 25 -21 55
-35 30 -14 55 -29 55 -34 0 -4 12 -13 28 -19 32 -13 92 -46 108 -60 6 -5 36
-22 65 -36 30 -15 56 -31 59 -34 3 -4 22 -15 43 -25 21 -10 41 -24 44 -32 3
-8 9 -11 15 -8 5 3 29 -8 52 -25 24 -16 46 -27 50 -24 3 3 6 2 6 -4 0 -6 8
-13 18 -17 9 -3 40 -19 67 -36 28 -17 58 -33 68 -36 9 -4 17 -11 17 -16 0 -5
4 -7 9 -3 6 3 13 0 18 -8 8 -12 66 -42 70 -35 1 1 13 -8 27 -21 14 -14 26 -20
26 -15 0 5 4 4 8 -1 9 -14 105 -70 113 -68 4 1 18 -8 32 -20 13 -12 31 -23 38
-25 8 -2 30 -13 49 -25 19 -12 38 -21 43 -19 4 1 7 -1 7 -6 0 -4 21 -19 47
-32 26 -14 54 -31 61 -37 7 -7 20 -13 28 -13 8 0 14 -4 14 -8 0 -4 10 -9 22
-9 13 -1 24 -7 26 -13 2 -5 10 -10 19 -10 8 0 21 -7 29 -15 13 -13 17 -13 30
-1 8 8 14 21 14 28 0 7 7 24 16 36 8 12 12 22 7 22 -4 0 -3 4 2 8 6 4 16 22
23 40 6 17 18 47 25 65 6 17 15 34 18 37 4 3 14 26 22 51 9 26 25 63 36 83 11
20 18 36 16 36 -3 0 5 19 17 43 12 23 21 45 20 50 -1 4 2 7 7 7 6 0 8 9 6 20
-2 11 0 20 4 20 7 0 33 55 46 98 3 12 10 22 14 22 4 0 8 6 8 13 0 6 8 30 18
52 10 22 19 43 19 47 1 3 4 10 9 14 4 4 7 16 7 26 0 10 4 18 10 18 5 0 9 3 8
8 0 4 6 24 15 44 10 21 17 44 17 53 0 8 4 15 8 15 9 0 37 70 34 83 -1 4 2 7 6
7 5 0 15 19 23 43 19 58 35 88 43 80 4 -4 4 0 1 9 -4 9 -2 19 4 22 6 4 8 13 4
21 -3 8 -1 15 4 15 4 0 19 28 33 63 13 34 28 65 33 68 5 3 8 8 7 10 -2 4 13
42 44 109 11 25 22 54 23 65 2 10 8 22 14 26 6 3 10 8 9 10 -1 3 10 34 26 69
1 3 5 15 9 28 4 12 12 22 17 22 5 0 7 4 4 9 -3 4 7 34 23 65 16 31 27 56 25
56 -2 0 6 19 18 43 13 23 23 47 23 53 0 6 6 19 14 28 7 9 11 16 7 16 -3 0 3
17 14 37 11 21 20 46 20 55 0 10 5 18 11 18 5 0 7 5 4 10 -3 6 -1 10 5 10 7 0
10 6 7 14 -3 8 1 20 8 26 8 7 12 16 9 21 -3 5 0 9 6 9 7 0 10 7 6 15 -3 8 -1
15 4 15 6 0 10 6 10 13 0 7 13 38 30 70 16 31 27 57 23 57 -3 0 0 7 7 15 7 8
10 15 6 15 -4 0 1 12 11 27 10 15 18 31 18 37 1 15 28 70 38 77 5 3 9 10 8 15
-1 20 12 54 20 54 5 0 8 3 8 8 -1 4 0 10 1 15 1 4 3 10 5 15 1 4 7 20 13 35 7
16 12 32 12 37 0 5 3 10 8 12 8 4 52 103 59 136 3 12 9 22 14 22 5 0 8 3 7 8
-1 4 5 21 12 37 7 17 12 36 11 43 -1 6 3 12 9 12 6 0 8 5 5 10 -3 6 -2 10 4
10 6 0 13 16 17 35 3 19 10 35 15 35 5 0 9 3 8 8 -2 14 13 52 21 52 4 0 7 6 7
13 -1 19 24 77 34 77 4 0 6 7 3 15 -4 8 -1 15 7 15 7 0 10 3 6 6 -3 4 1 21 10
38 10 17 17 34 18 38 0 3 3 10 8 14 4 4 7 16 7 26 0 10 4 18 10 18 5 0 9 3 8
8 -2 7 11 38 45 112 12 25 20 51 19 58 -2 6 2 12 8 12 5 0 9 3 8 8 -2 7 23 63
32 72 3 3 5 10 6 15 2 24 27 75 37 75 6 0 8 3 4 6 -3 3 5 30 18 60 13 30 24
55 23 57 0 1 9 21 21 45 12 23 19 47 16 52 -3 6 -2 10 2 10 8 0 35 55 37 75 1
6 3 12 6 15 11 11 50 101 50 115 0 8 4 15 9 15 5 0 12 11 15 25 4 14 19 51 33
83 15 31 26 63 25 70 -2 6 1 12 7 12 5 0 12 14 16 30 4 17 10 30 15 30 4 0 7
8 6 17 -2 9 3 24 11 32 7 9 13 19 13 24 -1 4 6 20 13 35 26 49 51 107 52 117
0 6 10 28 23 49 12 20 20 41 17 46 -2 4 4 19 15 33 11 14 20 31 20 39 0 8 11
36 24 64 22 47 38 83 40 94 1 3 5 11 9 18 5 6 5 12 0 12 -4 0 0 5 10 11 9 6
15 14 12 20 -4 5 -2 9 3 9 5 0 9 6 9 13 0 8 10 35 22 61 13 26 20 50 17 54 -4
3 -21 8 -39 9 -56 5 -59 6 -67 28 -9 23 -34 31 -130 39 -25 2 -46 5 -47 6 -2
2 -29 4 -60 5 -32 1 -69 7 -83 12 -14 6 -30 7 -36 2 -6 -5 -13 -7 -15 -4 -7 7
-71 18 -119 20 -25 1 -45 4 -45 5 0 1 -22 4 -49 6 -27 1 -60 6 -75 10 -39 10
-72 11 -78 1 -2 -4 -11 -3 -19 4 -8 7 -39 13 -67 14 -29 0 -57 4 -62 7 -6 4
-31 6 -57 6 -26 0 -57 4 -70 8 -22 7 -48 9 -163 17 -27 2 -58 7 -67 11 -10 5
-40 6 -68 4 -31 -2 -51 1 -54 8 -3 7 -24 11 -55 8 -28 -1 -51 1 -51 5 0 4 -24
8 -52 9 -80 3 -171 12 -188 19 -8 4 -36 7 -62 8 -27 2 -49 4 -50 5 -2 1 -28 4
-58 7 -141 11 -176 14 -190 20 -8 3 -33 7 -55 8 -22 1 -44 4 -50 5 -5 2 -23 4
-40 6 -16 1 -69 6 -117 10 -49 4 -88 10 -88 14 0 3 -21 5 -47 5 -27 -1 -52 1
-58 4 -12 7 0 5 -115 16 -52 4 -101 7 -108 6 -8 -1 -19 2 -25 7 -7 5 -36 9
-64 8 -29 -1 -53 1 -53 5 0 3 -22 7 -49 7 -27 1 -59 5 -72 10 -13 4 -42 7 -64
6 -22 -1 -44 2 -50 6 -5 4 -29 7 -53 6 -24 -1 -45 1 -47 4 -2 3 -23 7 -47 8
-24 1 -61 5 -83 9 -22 4 -57 6 -77 5 -21 -1 -38 3 -38 7 0 5 -19 9 -42 9 -60
1 -180 12 -198 19 -17 6 -85 12 -172 16 -32 1 -58 7 -58 12 0 6 -28 11 -63 12
-94 3 -151 8 -162 15 -5 3 -34 6 -63 7 -29 0 -58 4 -64 8 -7 3 -39 8 -72 9
-130 6 -156 9 -156 15 0 4 -27 7 -59 8 -33 0 -70 5 -83 9 -13 4 -42 7 -65 6
-24 0 -43 2 -43 6 0 5 -23 7 -50 6 -28 -2 -53 1 -56 6 -3 4 -32 8 -64 8 -32 0
-61 4 -64 9 -3 5 -28 7 -56 6 -27 -1 -50 1 -50 5 0 4 -27 6 -60 6 -33 -1 -60
2 -60 7 0 4 -26 7 -58 7 -32 0 -62 3 -66 7 -3 4 -30 9 -59 11 -94 6 -152 12
-182 18 l-31 6 2 -1954z m934 1232 c97 -13 162 -20 227 -23 28 -1 55 -6 59
-10 4 -4 31 -7 59 -7 28 0 55 -3 59 -7 3 -4 30 -8 59 -9 57 -3 103 -8 222 -23
44 -6 103 -12 130 -14 28 -2 57 -7 65 -10 8 -3 31 -6 50 -6 19 1 69 -4 110
-10 86 -13 162 -21 238 -25 29 -2 55 -6 59 -9 3 -4 33 -7 65 -7 32 0 58 -4 58
-8 0 -5 25 -8 56 -7 30 1 57 -2 59 -5 2 -4 30 -8 61 -9 31 -1 64 -5 73 -10 9
-4 32 -6 51 -4 19 2 42 0 50 -4 8 -4 33 -8 55 -8 22 -1 56 -5 75 -8 59 -11
133 -18 183 -18 26 0 47 -4 47 -8 0 -5 25 -8 55 -7 30 1 55 -1 55 -5 0 -4 33
-9 73 -13 39 -3 95 -8 122 -11 28 -3 73 -7 102 -9 28 -2 57 -7 64 -12 7 -4 36
-6 65 -5 29 1 54 -1 57 -6 3 -4 30 -8 61 -7 31 0 56 -3 56 -7 0 -4 25 -7 55
-8 31 0 61 -3 67 -7 7 -4 33 -7 60 -7 26 1 48 -2 48 -5 0 -4 26 -7 58 -7 31 1
62 -2 67 -6 9 -7 57 -12 185 -22 30 -2 55 -5 55 -7 0 -1 23 -4 50 -6 28 -2 86
-9 130 -15 44 -6 99 -11 123 -11 23 -1 42 -6 42 -11 0 -5 7 -7 15 -3 11 4 14
-1 13 -19 -1 -14 -6 -25 -11 -25 -5 0 -7 -7 -4 -15 4 -8 2 -17 -3 -20 -14 -9
-40 -67 -34 -76 3 -5 0 -9 -5 -9 -6 0 -11 -9 -11 -20 0 -11 -5 -20 -11 -20 -6
0 -9 -7 -5 -15 3 -8 1 -15 -4 -15 -7 0 -33 -61 -35 -82 0 -4 -8 -16 -17 -28
-10 -11 -15 -26 -12 -35 4 -8 2 -15 -4 -15 -6 0 -13 -13 -17 -30 -4 -16 -10
-30 -15 -30 -4 0 -7 -8 -6 -17 2 -10 -5 -25 -15 -34 -10 -9 -16 -19 -13 -22 3
-3 -1 -16 -10 -29 -9 -12 -16 -30 -16 -40 0 -10 -5 -18 -11 -18 -5 0 -8 -4 -5
-9 3 -4 -1 -17 -9 -27 -8 -10 -15 -24 -15 -30 0 -7 -12 -38 -27 -70 -15 -33
-28 -61 -28 -64 -1 -3 -6 -16 -12 -30 -13 -29 -20 -51 -21 -64 0 -5 -4 -12 -9
-15 -7 -5 -34 -56 -38 -71 -6 -28 -31 -80 -37 -80 -5 0 -8 -6 -7 -12 1 -7 -6
-31 -16 -53 -10 -22 -19 -43 -19 -47 -1 -3 -4 -10 -8 -14 -5 -4 -8 -15 -8 -25
0 -9 -4 -19 -10 -21 -5 -1 -11 -12 -13 -24 -1 -12 -11 -33 -20 -48 -10 -14
-15 -26 -12 -26 4 0 -1 -10 -9 -22 -9 -12 -16 -30 -16 -40 0 -10 -4 -18 -10
-18 -5 0 -9 -3 -9 -7 1 -5 -4 -22 -10 -40 -7 -18 -13 -36 -13 -40 0 -4 -9 -20
-19 -35 -10 -14 -19 -36 -19 -47 0 -12 -4 -21 -8 -21 -8 0 -37 -80 -33 -88 1
-1 -5 -10 -14 -18 -8 -9 -15 -24 -15 -35 0 -10 -4 -19 -10 -19 -5 0 -10 -4
-10 -9 0 -5 -8 -26 -17 -47 -9 -22 -17 -41 -18 -44 -1 -3 -7 -18 -13 -33 -7
-16 -12 -33 -12 -38 0 -5 -4 -9 -10 -9 -5 0 -9 -3 -8 -7 1 -9 -8 -37 -27 -78
-18 -38 -38 -88 -39 -97 -1 -4 -9 -16 -18 -27 -9 -11 -14 -22 -11 -24 3 -3 1
-12 -3 -19 -5 -7 -9 -15 -10 -18 -11 -38 -18 -50 -27 -50 -6 0 -7 -3 -4 -7 4
-3 2 -12 -4 -20 -6 -7 -9 -13 -5 -13 4 0 -5 -21 -19 -47 -14 -27 -25 -55 -25
-64 0 -9 -7 -22 -15 -29 -8 -6 -14 -15 -13 -18 2 -9 -8 -34 -39 -102 -14 -30
-29 -64 -34 -75 -4 -11 -22 -51 -40 -90 -18 -38 -33 -74 -33 -80 -1 -5 -10
-28 -20 -50 -11 -22 -18 -44 -17 -49 1 -5 -2 -12 -6 -15 -11 -7 -63 -124 -63
-140 0 -6 -4 -11 -10 -11 -5 0 -9 -3 -8 -7 2 -10 -8 -35 -33 -88 -10 -22 -21
-52 -25 -67 -3 -16 -10 -28 -15 -28 -4 0 -11 -16 -15 -35 -3 -19 -10 -35 -15
-35 -5 0 -8 -3 -8 -7 3 -14 -25 -73 -34 -73 -4 0 -5 -4 -2 -10 3 -5 -2 -24
-12 -42 -16 -31 -61 -131 -67 -153 -11 -35 -32 -75 -38 -75 -4 0 -8 -9 -8 -20
0 -30 -22 -70 -38 -70 -8 0 -30 11 -49 26 -18 14 -33 22 -33 18 0 -3 -7 -1
-15 6 -8 7 -15 9 -15 6 0 -4 -7 -1 -15 6 -33 28 -42 34 -85 57 -25 13 -63 33
-85 45 -22 11 -46 27 -53 33 -7 7 -24 16 -38 19 -13 3 -24 10 -24 16 0 5 -4 6
-10 3 -5 -3 -10 -2 -10 2 0 5 -17 17 -37 28 -21 11 -40 22 -43 25 -3 3 -23 14
-45 25 -22 11 -42 23 -45 26 -3 3 -40 24 -82 48 -43 23 -80 46 -83 52 -4 5
-11 7 -16 4 -5 -4 -9 -1 -9 4 0 6 -7 11 -15 11 -8 0 -15 5 -15 10 0 6 -7 10
-15 10 -8 0 -39 16 -69 35 -30 19 -58 35 -61 35 -4 0 -18 9 -32 20 -14 11 -29
17 -34 14 -5 -3 -9 0 -9 5 0 6 -7 11 -15 11 -8 0 -15 4 -15 9 0 5 -16 15 -35
22 -19 7 -35 17 -35 21 0 4 -5 8 -11 8 -6 0 -24 9 -40 21 -16 11 -29 17 -29
12 0 -4 -6 -1 -13 8 -11 14 -47 32 -56 29 -2 -1 -7 2 -10 7 -10 14 -90 63
-102 63 -6 0 -20 9 -30 21 -9 11 -20 20 -24 19 -10 -3 -65 22 -65 30 0 4 -18
15 -40 24 -22 9 -40 19 -40 24 0 7 -51 30 -66 31 -3 0 -13 8 -22 19 -9 10 -23
17 -29 15 -7 -3 -13 0 -13 5 0 6 -13 15 -30 21 -16 5 -30 15 -30 22 0 7 -3 10
-6 6 -3 -3 -31 10 -62 29 -32 19 -63 34 -69 34 -7 0 -13 5 -13 10 0 10 -48 35
-62 32 -5 -1 -8 2 -8 8 0 5 -6 10 -14 10 -8 0 -16 7 -20 15 -3 8 -9 14 -13 13
-9 -2 -75 31 -83 41 -3 4 -16 12 -30 18 -29 14 -89 49 -139 80 -19 12 -38 20
-43 17 -4 -3 -8 0 -8 5 0 6 -6 11 -14 11 -12 0 -14 218 -14 1433 0 787 1 1439
4 1448 5 17 54 17 184 -1z"/>
<path d="M5893 7102 c-15 -14 -30 -25 -33 -24 -10 3 -40 -9 -40 -17 0 -4 -16
-13 -35 -21 -19 -8 -35 -17 -35 -20 0 -3 -16 -12 -35 -20 -19 -8 -35 -17 -35
-22 0 -4 -7 -8 -15 -8 -8 0 -15 -5 -15 -12 0 -6 -3 -8 -7 -5 -3 4 -21 -5 -40
-19 -18 -14 -33 -22 -33 -18 0 3 -7 1 -15 -6 -8 -7 -15 -9 -15 -4 0 5 -5 1
-11 -8 -5 -10 -17 -18 -24 -18 -8 0 -15 -4 -15 -10 0 -6 -3 -9 -7 -8 -7 2 -43
-18 -108 -60 -11 -6 -30 -16 -42 -21 -11 -6 -24 -14 -27 -20 -4 -6 -14 -7 -23
-4 -10 4 -14 2 -9 -5 3 -6 -3 -14 -16 -18 -13 -4 -25 -9 -28 -13 -3 -3 -34
-21 -70 -40 -36 -19 -72 -40 -81 -47 -8 -8 -21 -14 -27 -14 -7 0 -12 -5 -12
-11 0 -5 -4 -7 -10 -4 -5 3 -10 2 -10 -3 0 -5 -8 -13 -17 -16 -10 -4 -36 -18
-58 -31 -22 -14 -51 -30 -65 -37 -14 -7 -60 -34 -102 -59 -42 -26 -79 -45 -82
-41 -3 3 -6 1 -6 -5 0 -6 -11 -14 -25 -17 -14 -4 -23 -11 -20 -16 6 -9 -11
-14 -42 -13 -7 1 -13 -6 -13 -14 0 -8 -5 -11 -10 -8 -6 3 -13 0 -16 -8 -5 -14
-49 -33 -67 -28 -5 1 -6 -3 -2 -9 3 -5 -1 -10 -9 -10 -8 0 -19 -6 -23 -14 -4
-8 -10 -15 -13 -16 -32 -6 -50 -14 -50 -22 0 -5 -4 -6 -10 -3 -5 3 -10 2 -10
-3 0 -4 -16 -14 -35 -22 -19 -8 -35 -17 -35 -22 0 -4 -5 -8 -11 -8 -6 0 -17
-7 -26 -15 -8 -8 -19 -13 -24 -10 -5 4 -9 1 -9 -6 0 -7 -3 -10 -6 -6 -3 3 -15
-3 -27 -13 -11 -11 -24 -17 -29 -14 -4 3 -8 1 -8 -3 0 -5 -29 -24 -65 -42 -36
-19 -65 -37 -65 -41 0 -7 -38 -23 -51 -21 -4 0 -19 -11 -33 -24 -14 -13 -26
-22 -26 -20 0 3 -19 -7 -42 -21 -24 -14 -55 -30 -70 -37 -16 -6 -28 -14 -28
-18 0 -4 -13 -12 -30 -19 -16 -7 -30 -17 -30 -22 0 -5 -4 -7 -9 -3 -5 3 -15
-1 -23 -7 -7 -7 -34 -24 -60 -37 -27 -13 -48 -28 -48 -34 0 -5 -6 -7 -14 -4
-8 3 -22 -3 -32 -14 -18 -20 -82 -54 -96 -51 -5 1 -8 -2 -8 -7 0 -5 -25 -21
-55 -36 -30 -16 -55 -32 -55 -36 0 -4 -13 -10 -30 -14 -16 -4 -30 -10 -30 -14
0 -8 -71 -45 -82 -43 -5 1 -8 -2 -8 -6 0 -5 -25 -22 -55 -37 -30 -16 -55 -33
-55 -37 0 -4 -7 -8 -15 -8 -8 0 -15 -4 -15 -8 0 -4 -10 -9 -22 -9 -13 -1 -24
-7 -26 -12 -2 -6 -20 -18 -40 -28 -20 -9 -47 -25 -59 -36 -13 -11 -23 -17 -23
-13 0 3 -24 -8 -53 -26 -29 -18 -62 -38 -73 -45 -10 -6 -43 -24 -71 -39 -29
-15 -53 -31 -53 -36 0 -4 -3 -7 -7 -6 -12 3 -53 -21 -53 -31 0 -9 48 -74 75
-102 8 -9 15 -23 15 -33 0 -9 3 -15 8 -13 4 3 18 -13 32 -34 13 -21 28 -39 32
-39 4 0 8 -6 8 -13 0 -7 9 -20 20 -30 11 -9 20 -24 20 -32 0 -9 5 -13 10 -10
6 3 10 2 10 -3 0 -8 35 -57 70 -99 5 -7 10 -15 10 -19 0 -6 38 -55 80 -101 11
-12 20 -25 20 -29 0 -3 18 -28 41 -55 22 -27 37 -49 32 -49 -4 0 -3 -4 3 -8 5
-4 23 -25 39 -47 17 -22 34 -43 40 -47 5 -4 6 -8 2 -8 -4 0 3 -10 16 -22 13
-13 26 -31 30 -40 3 -10 11 -18 17 -18 6 0 9 -4 5 -9 -3 -5 6 -18 20 -30 15
-11 26 -23 25 -28 0 -4 8 -17 17 -28 9 -11 16 -21 14 -23 -1 -2 9 -14 24 -28
14 -13 23 -24 20 -24 -7 0 64 -91 80 -102 7 -5 7 -8 0 -8 -7 0 -7 -3 0 -8 6
-4 26 -29 45 -55 19 -27 43 -56 53 -65 9 -9 17 -22 17 -29 0 -7 9 -18 20 -25
11 -7 20 -18 20 -24 0 -6 9 -19 20 -29 11 -10 20 -24 20 -31 0 -7 9 -18 21
-24 12 -7 18 -18 15 -26 -3 -8 0 -14 7 -14 10 0 40 -37 72 -89 6 -9 16 -23 22
-31 40 -48 63 -79 63 -87 0 -4 9 -14 20 -21 12 -7 18 -17 15 -22 -3 -5 3 -15
15 -22 11 -7 20 -19 20 -26 0 -7 7 -15 15 -18 8 -3 17 -14 20 -24 3 -10 16
-29 28 -43 26 -31 58 -75 58 -82 -1 -2 9 -16 22 -29 58 -65 67 -76 62 -76 -3
0 6 -12 20 -27 14 -15 25 -32 25 -38 0 -6 9 -17 19 -25 11 -7 18 -17 15 -21
-2 -5 5 -13 17 -19 11 -7 18 -14 16 -17 -3 -2 2 -14 11 -25 9 -11 27 -32 39
-46 13 -15 23 -31 23 -36 0 -5 12 -19 28 -32 15 -13 24 -24 20 -24 -7 0 11
-25 40 -55 6 -8 12 -18 12 -24 0 -6 5 -11 10 -11 6 0 10 -6 10 -13 0 -7 9 -19
20 -27 11 -8 20 -20 20 -27 0 -7 4 -13 8 -13 4 0 15 -12 24 -27 19 -32 46 -67
71 -94 9 -11 14 -19 11 -19 -3 0 2 -7 11 -16 9 -9 24 -29 33 -43 9 -14 22 -30
29 -34 7 -4 13 -12 13 -17 0 -6 9 -20 20 -32 10 -13 21 -27 22 -33 2 -5 12
-19 23 -31 11 -12 28 -33 37 -46 10 -12 27 -35 38 -50 11 -14 20 -30 20 -35 0
-4 9 -14 20 -21 11 -7 20 -17 20 -22 0 -9 19 -36 48 -66 7 -8 11 -14 8 -14 -3
0 2 -8 12 -18 26 -29 52 -62 52 -68 0 -2 9 -14 20 -26 11 -12 20 -27 20 -34 0
-7 9 -16 20 -19 11 -3 20 -15 20 -25 0 -10 4 -20 8 -22 4 -1 37 -41 72 -88 35
-47 69 -88 74 -92 6 -4 8 -8 3 -8 -4 0 13 -25 38 -55 25 -31 45 -59 45 -63 0
-4 16 -24 35 -45 18 -20 31 -37 27 -37 -4 0 -2 -4 3 -8 6 -4 22 -23 35 -42 13
-19 29 -40 35 -46 5 -6 35 -46 65 -88 30 -42 58 -76 63 -76 4 0 5 -5 2 -10 -3
-6 -3 -10 2 -10 4 0 19 -17 33 -38 14 -20 32 -42 40 -49 8 -7 12 -13 8 -13 -8
0 10 -25 57 -75 17 -18 31 -39 33 -46 2 -7 14 -23 27 -35 13 -12 21 -25 18
-28 -4 -3 -2 -6 4 -6 6 0 14 -11 17 -25 4 -14 10 -24 14 -22 10 6 37 -25 37
-43 0 -8 6 -14 13 -13 6 2 12 -3 12 -10 0 -7 9 -23 20 -35 11 -12 20 -25 20
-29 0 -5 14 -21 31 -36 17 -15 25 -27 18 -27 -11 0 -11 -3 1 -10 22 -14 33
-12 26 6 -3 8 -2 13 3 9 5 -3 11 0 13 5 2 6 21 -12 42 -40 41 -54 51 -60 60
-32 4 9 20 33 36 52 16 19 35 42 42 50 7 8 13 17 13 20 0 3 7 13 15 23 8 10
20 23 25 30 6 7 22 28 35 47 14 19 30 42 37 50 40 50 83 111 83 118 0 4 9 14
20 22 11 8 20 20 20 27 0 7 9 18 20 25 11 7 20 19 20 26 0 6 9 20 20 29 11 10
20 22 20 28 0 6 9 17 20 25 11 8 20 20 20 27 0 6 10 19 22 27 12 9 19 16 14
16 -4 0 5 15 20 33 16 19 36 44 44 57 8 13 23 32 33 42 9 10 17 22 17 26 0 5
9 17 20 27 11 10 20 22 20 27 0 4 9 18 20 31 41 46 49 57 65 86 8 17 20 31 25
31 6 0 10 6 10 13 0 7 9 19 20 27 11 8 20 20 20 27 0 7 10 23 23 36 12 13 30
35 40 48 49 66 79 106 92 122 8 9 13 17 10 17 -3 0 3 9 12 19 23 24 54 70 51
73 -1 2 9 15 22 29 14 14 33 37 43 50 9 13 29 39 43 56 14 18 23 33 19 33 -4
0 4 9 19 21 14 11 24 24 21 29 -3 5 6 17 20 28 14 11 25 24 25 29 0 6 9 18 20
28 11 10 18 20 15 23 -2 3 3 12 13 21 10 9 35 41 57 71 22 30 43 57 47 58 5 2
8 10 8 17 0 7 3 15 8 17 11 5 72 86 72 96 0 6 7 12 15 16 8 3 15 11 15 18 0 8
9 20 20 28 11 8 20 19 20 26 0 6 9 19 20 29 11 10 20 22 20 26 0 4 11 20 24
35 46 51 56 64 56 72 0 5 11 19 25 32 14 13 23 26 20 28 -3 3 3 11 13 18 9 7
17 16 17 21 0 5 10 19 23 33 12 13 22 30 22 37 0 8 4 12 9 9 5 -3 14 8 21 24
7 16 20 32 31 35 10 3 16 12 13 19 -3 8 3 20 13 27 10 8 24 26 32 42 8 15 18
27 23 27 4 0 8 5 8 10 0 10 8 20 62 80 18 19 31 36 30 38 -3 3 29 49 53 75 11
12 20 25 20 29 0 3 10 18 22 31 12 14 30 38 40 54 9 15 26 36 37 46 10 9 15
17 11 17 -5 0 4 13 20 30 16 16 26 30 22 30 -3 0 7 15 23 32 52 58 60 68 53
68 -4 0 6 13 22 30 16 16 25 30 20 30 -4 0 3 9 16 21 13 11 24 25 24 31 0 5 7
15 15 21 8 7 31 35 50 62 19 28 38 52 42 53 4 2 8 8 8 14 0 6 11 24 25 42 14
17 34 41 43 54 9 13 25 32 35 43 9 10 17 22 17 25 0 6 39 57 65 85 8 9 15 21
15 27 0 6 9 16 21 22 11 7 18 14 15 17 -3 3 7 20 22 38 15 18 36 45 47 60 11
16 26 34 33 41 6 7 12 16 12 19 0 7 38 57 65 86 8 9 15 21 15 27 0 7 9 17 20
24 11 7 20 17 20 21 0 5 11 23 25 41 14 17 29 36 33 41 4 6 20 28 37 50 16 22
29 43 27 48 -1 4 2 7 7 7 9 0 141 176 141 189 0 4 11 17 25 27 14 10 25 24 25
30 0 6 9 19 20 29 11 10 17 22 14 26 -3 5 1 9 8 9 17 1 -30 40 -48 40 -7 0
-17 6 -21 13 -4 6 -29 22 -55 35 -26 13 -50 27 -53 33 -4 5 -11 7 -16 4 -5 -4
-9 -1 -9 4 0 6 -7 11 -15 11 -8 0 -15 5 -15 10 0 6 -7 10 -15 10 -8 0 -15 4
-15 10 0 5 -3 10 -7 9 -15 -2 -53 14 -53 22 0 8 -62 38 -76 38 -3 0 -14 9 -24
21 -10 12 -21 21 -25 20 -10 -2 -65 25 -65 32 0 5 -7 8 -15 8 -8 0 -15 5 -15
10 0 6 -9 10 -20 10 -11 0 -20 4 -20 8 0 4 -22 19 -50 33 -27 13 -50 27 -50
32 0 4 -7 7 -15 7 -8 0 -15 5 -15 11 0 6 -7 9 -15 5 -8 -3 -15 -1 -15 4 0 6
-7 10 -15 10 -8 0 -15 4 -15 8 0 5 -22 19 -50 32 -27 13 -50 27 -50 32 0 4 -7
8 -15 8 -8 0 -15 5 -15 11 0 5 -5 7 -10 4 -6 -3 -17 0 -25 7 -36 33 -46 39
-55 33 -6 -3 -10 -1 -10 4 0 6 -7 11 -15 11 -8 0 -15 4 -15 8 0 5 -22 19 -50
32 -27 13 -50 26 -50 30 0 3 -16 12 -35 20 -19 8 -35 17 -35 22 0 4 -5 8 -10
8 -6 0 -29 12 -53 27 -23 15 -45 26 -49 25 -5 -1 -8 2 -8 7 0 5 -13 12 -29 16
-16 3 -32 13 -35 21 -3 9 -10 12 -16 9 -6 -3 -13 0 -16 9 -3 9 -12 12 -21 9
-12 -5 -14 -3 -8 7 6 10 4 12 -8 7 -9 -3 -18 0 -21 9 -3 8 -10 14 -16 14 -6 0
-31 14 -56 30 -24 17 -44 28 -44 24 0 -3 -15 5 -34 20 -19 14 -39 26 -45 26
-6 0 -11 5 -11 11 0 5 -4 8 -9 5 -5 -3 -20 3 -34 14 -14 11 -30 20 -36 20 -6
0 -11 5 -11 10 0 6 -3 9 -7 8 -5 -1 -27 10 -50 25 -24 15 -47 27 -52 27 -5 0
-14 7 -21 15 -7 8 -16 12 -21 9 -5 -3 -9 0 -9 5 0 6 -7 11 -15 11 -8 0 -15 5
-15 11 0 5 -4 8 -9 5 -5 -3 -14 1 -21 9 -7 8 -19 15 -26 15 -8 0 -14 4 -14 8
0 4 -12 13 -27 20 -16 6 -46 23 -68 36 -22 13 -60 35 -84 47 -24 13 -46 29
-48 36 -3 6 -11 9 -19 6 -8 -3 -14 1 -14 8 0 7 -3 10 -6 6 -4 -3 -25 6 -48 22
-22 15 -56 34 -73 42 -18 8 -33 20 -33 27 0 7 -4 11 -9 8 -9 -6 -113 51 -143
78 -10 9 -24 16 -31 16 -8 0 -34 13 -58 30 -24 16 -50 30 -56 30 -7 0 -13 5
-13 10 0 6 -6 10 -14 10 -7 0 -19 7 -26 15 -7 8 -16 12 -21 9 -5 -3 -9 0 -9 5
0 6 -6 11 -14 11 -7 0 -19 7 -26 15 -7 8 -16 12 -21 9 -5 -3 -9 0 -9 5 0 6 -7
11 -15 11 -8 0 -15 5 -15 12 0 6 -3 8 -6 5 -4 -3 -18 3 -32 13 -13 11 -28 20
-33 20 -5 0 -28 13 -51 29 -24 16 -46 27 -50 25 -5 -3 -8 -1 -8 4 0 4 -29 23
-65 42 -36 19 -65 37 -65 42 0 4 -9 8 -20 8 -11 0 -20 5 -20 10 0 6 -7 10 -15
10 -8 0 -15 4 -15 9 0 9 -33 23 -60 24 -8 1 -19 7 -23 14 -4 7 -15 13 -22 13
-8 0 -15 4 -15 8 0 5 -16 13 -35 19 -31 10 -37 8 -62 -15z m168 -796 c5 3 9 1
9 -4 0 -6 12 -13 27 -17 15 -3 30 -10 33 -14 6 -9 67 -45 148 -88 28 -15 52
-30 52 -34 0 -4 14 -10 30 -14 17 -4 30 -11 30 -15 0 -5 23 -19 50 -32 28 -13
50 -26 50 -30 0 -5 7 -8 15 -8 8 0 15 -5 15 -11 0 -5 4 -8 9 -5 5 3 14 -1 21
-9 7 -8 19 -15 26 -15 8 0 14 -5 14 -12 0 -6 3 -8 7 -5 3 4 20 -3 37 -16 17
-13 50 -31 74 -41 23 -11 42 -25 42 -33 0 -8 4 -12 9 -9 8 6 69 -21 81 -35 3
-3 25 -16 50 -30 25 -13 47 -26 50 -29 3 -3 16 -11 30 -18 59 -29 115 -63 122
-75 4 -6 8 -8 8 -4 0 5 12 0 28 -11 15 -10 34 -22 42 -25 8 -4 22 -11 30 -16
62 -40 172 -101 180 -101 5 0 10 -4 10 -10 0 -5 7 -10 15 -10 8 0 15 -5 15
-11 0 -5 4 -8 9 -4 5 3 16 -2 24 -10 9 -8 20 -15 26 -15 6 0 11 -5 11 -12 0
-6 3 -8 6 -5 4 4 21 -4 38 -16 17 -12 33 -22 36 -23 16 -2 60 -29 60 -36 0 -5
5 -6 10 -3 6 3 10 1 10 -5 0 -6 5 -8 10 -5 6 3 10 2 10 -3 0 -5 8 -12 18 -15
29 -10 116 -64 120 -75 2 -6 10 -8 18 -5 8 3 14 0 14 -6 0 -6 8 -11 19 -11 10
0 24 -7 31 -16 8 -8 27 -22 44 -30 48 -22 90 -48 98 -59 4 -5 8 -6 8 -1 0 5
10 0 23 -12 13 -12 27 -19 30 -15 4 3 7 1 7 -6 0 -7 5 -9 10 -6 6 3 10 1 10
-4 0 -6 6 -11 13 -11 8 0 24 -9 37 -20 13 -11 29 -20 37 -20 7 0 13 -5 13 -11
0 -5 4 -8 9 -5 5 3 14 -1 21 -9 7 -8 19 -15 26 -15 8 0 14 -4 14 -10 0 -5 4
-10 9 -10 6 0 37 -16 70 -35 61 -36 61 -36 47 -63 -8 -15 -25 -39 -38 -54 -13
-15 -36 -46 -53 -69 -16 -23 -45 -62 -62 -86 -18 -24 -33 -47 -33 -53 0 -5 -9
-14 -20 -20 -11 -6 -20 -17 -20 -25 0 -8 -6 -18 -12 -22 -7 -4 -29 -30 -47
-58 -19 -27 -38 -52 -41 -55 -3 -3 -21 -26 -40 -52 -18 -27 -37 -48 -42 -48
-5 0 -6 -4 -3 -10 3 -5 1 -10 -4 -10 -6 0 -11 -5 -11 -10 0 -6 -9 -20 -20 -32
-11 -12 -20 -28 -20 -35 0 -7 -6 -13 -14 -13 -8 0 -17 -11 -20 -25 -4 -14 -13
-25 -21 -25 -8 0 -15 -9 -15 -20 0 -10 -9 -24 -20 -30 -11 -6 -20 -15 -20 -21
0 -5 -17 -31 -37 -58 -21 -27 -47 -61 -58 -76 -11 -16 -26 -34 -32 -41 -7 -7
-13 -17 -13 -23 0 -6 -4 -11 -8 -11 -4 0 -16 -15 -27 -32 -10 -18 -27 -42 -37
-52 -10 -11 -30 -38 -45 -60 -15 -23 -34 -45 -40 -49 -7 -4 -13 -13 -13 -19 0
-6 -7 -18 -15 -27 -27 -29 -65 -79 -65 -86 0 -3 -6 -12 -12 -19 -7 -7 -24 -28
-38 -47 -14 -18 -35 -43 -46 -56 -12 -12 -20 -24 -17 -27 3 -2 -3 -13 -11 -23
-46 -52 -77 -93 -72 -93 4 0 -4 -11 -18 -24 -15 -13 -26 -28 -26 -34 0 -6 -9
-17 -20 -25 -11 -8 -18 -16 -15 -19 3 -3 -4 -13 -15 -23 -11 -10 -20 -24 -20
-30 0 -7 -7 -15 -15 -19 -8 -3 -15 -12 -15 -21 0 -8 -4 -15 -8 -15 -8 0 -70
-83 -73 -98 -1 -4 -12 -17 -25 -29 -13 -12 -24 -27 -24 -32 0 -5 -8 -16 -17
-23 -10 -7 -24 -25 -31 -39 -8 -14 -23 -38 -35 -52 -12 -14 -31 -38 -42 -53
-11 -15 -30 -40 -42 -55 -13 -15 -23 -31 -23 -36 0 -5 -9 -15 -20 -23 -11 -8
-20 -19 -20 -26 0 -6 -9 -19 -20 -29 -11 -10 -20 -23 -20 -29 0 -6 -9 -17 -20
-24 -11 -7 -20 -19 -20 -26 0 -8 -3 -16 -7 -18 -10 -4 -73 -85 -73 -92 0 -3
-8 -14 -17 -24 -10 -10 -36 -45 -58 -77 -22 -32 -48 -66 -57 -76 -10 -11 -18
-23 -18 -29 0 -5 -8 -14 -17 -19 -10 -6 -15 -11 -11 -11 4 0 0 -9 -10 -21 -38
-46 -48 -58 -62 -79 -23 -34 -114 -154 -121 -160 -4 -3 -9 -15 -13 -28 -4 -12
-11 -20 -16 -17 -4 2 -13 -8 -20 -24 -6 -16 -18 -32 -26 -35 -8 -3 -14 -12
-14 -20 0 -8 -3 -16 -7 -18 -13 -5 -63 -76 -63 -88 0 -6 -4 -8 -10 -5 -5 3
-10 0 -10 -8 0 -8 -7 -17 -15 -21 -8 -3 -15 -11 -15 -18 0 -8 -9 -22 -21 -32
-20 -17 -22 -17 -40 3 -11 12 -17 21 -14 21 7 0 -31 50 -63 83 -9 11 -16 23
-15 27 2 5 -8 18 -22 28 -13 11 -22 21 -20 24 3 3 -6 15 -20 28 -14 13 -25 29
-25 36 0 7 -4 14 -8 16 -5 2 -23 25 -42 53 -34 50 -55 76 -77 100 -7 8 -13 17
-13 21 0 4 -21 31 -46 60 -25 30 -42 54 -38 54 4 0 -5 11 -20 25 -14 13 -26
28 -26 33 0 5 -14 25 -31 45 -17 20 -30 39 -29 42 1 4 -10 17 -24 30 -14 13
-26 28 -26 33 0 5 -9 17 -20 27 -11 10 -20 22 -20 28 0 5 -9 18 -21 28 -11 9
-19 19 -18 21 2 2 -6 13 -16 26 -11 12 -19 25 -17 28 2 3 -8 14 -22 25 -15 11
-26 25 -26 30 0 9 -21 37 -52 71 -10 10 -15 18 -12 18 3 0 -1 6 -8 14 -7 7
-20 24 -28 36 -8 12 -22 29 -30 38 -8 9 -15 18 -15 22 0 3 -10 16 -22 30 -13
13 -23 28 -23 33 0 5 -8 17 -17 26 -10 9 -29 32 -43 51 -26 38 -28 40 -65 86
-14 18 -25 37 -25 43 0 6 -9 16 -20 23 -11 7 -20 16 -20 21 0 10 -61 90 -72
95 -5 2 -8 10 -8 18 0 7 -9 19 -20 26 -11 7 -20 18 -20 25 0 7 -12 25 -26 40
-50 54 -54 60 -54 67 0 8 -14 27 -50 66 -14 15 -24 32 -22 38 1 5 -5 16 -15
24 -10 7 -31 33 -48 58 -32 47 -43 61 -75 98 -11 12 -20 24 -20 26 0 9 -102
141 -111 144 -5 2 -7 7 -4 12 2 4 -4 15 -15 25 -11 10 -20 23 -20 29 0 6 -9
17 -20 24 -11 7 -20 17 -20 24 0 6 -7 18 -15 27 -39 42 -76 91 -70 91 5 0 -3
9 -16 21 -13 11 -24 24 -24 27 0 4 -19 31 -43 60 -23 30 -39 59 -35 64 3 6 2
9 -3 6 -5 -3 -15 0 -22 8 -7 8 -10 14 -6 14 4 0 -5 14 -21 30 -16 17 -25 30
-21 30 4 0 -4 11 -18 24 -15 13 -26 28 -26 35 0 6 -9 16 -20 23 -11 7 -20 17
-20 21 0 9 -35 56 -65 88 -8 9 -15 21 -15 27 0 6 -8 16 -17 21 -10 6 -14 11
-9 11 5 0 -3 11 -18 25 -14 13 -26 29 -26 35 0 5 -9 19 -20 30 -12 12 -18 26
-14 33 4 7 4 9 -1 5 -4 -4 -29 20 -54 55 -25 34 -52 68 -59 76 -20 21 -10 44
26 62 18 9 51 29 72 43 22 14 40 23 40 20 0 -4 9 1 20 11 11 10 20 14 20 9 0
-5 5 -1 11 9 6 9 14 15 20 12 5 -4 9 -1 9 4 0 6 6 11 14 11 7 0 19 7 26 15 7
8 16 12 21 9 5 -3 9 0 9 5 0 6 5 11 11 11 6 0 30 13 53 30 24 16 46 27 48 25
3 -3 16 5 30 18 14 13 30 21 36 19 7 -2 12 1 12 7 0 6 7 11 15 11 8 0 15 5 15
11 0 5 5 7 10 4 6 -3 10 -1 10 5 0 6 4 9 9 6 5 -4 11 -3 13 2 4 11 101 67 111
64 4 -1 7 3 7 9 0 5 4 8 9 4 5 -3 17 5 25 17 9 12 16 19 16 15 0 -8 24 4 105
53 28 17 71 41 98 55 26 14 47 30 47 36 0 5 4 8 9 4 5 -3 12 -1 16 5 4 6 11 8
16 5 5 -4 9 -1 9 4 0 6 7 11 15 11 9 0 18 6 21 14 3 8 19 18 35 21 16 4 29 11
29 17 0 6 3 9 6 5 3 -3 15 3 27 13 11 11 24 17 29 14 4 -3 8 0 8 5 0 6 5 11
11 11 6 0 23 9 39 20 15 11 30 17 34 13 3 -3 6 -1 6 5 0 7 7 12 15 12 9 0 18
6 21 14 3 8 19 18 35 21 16 4 29 11 29 16 0 6 5 7 10 4 6 -3 10 -2 10 3 0 9
50 37 63 34 4 -1 7 3 7 8 0 6 7 10 15 10 9 0 18 7 21 15 4 8 14 15 23 15 10 0
27 9 39 20 12 12 22 18 22 16 0 -3 22 7 48 23 26 15 68 39 93 53 24 14 72 42
106 62 34 20 66 36 72 36 6 0 11 4 11 8 0 10 50 37 63 34 4 -1 7 2 7 8 0 6 7
10 15 10 8 0 15 4 15 9 0 5 10 13 23 17 12 4 45 22 74 40 28 18 54 30 57 27 3
-4 6 -1 6 6 0 7 5 9 10 6 6 -3 10 -2 10 3 0 5 20 19 45 32 25 13 45 27 45 32
0 4 3 7 8 6 8 -2 61 22 80 37 7 5 19 16 27 23 8 7 15 11 15 7 0 -3 12 1 28 9
15 8 29 10 30 5 2 -5 8 -7 13 -3z m-136 -5614 c-3 -3 -11 0 -18 7 -9 10 -8 11
6 5 10 -3 15 -9 12 -12z"/>
</g>
</svg>
